<svg width="94" height="96" viewBox="0 0 94 96" fill="none" xmlns="http://www.w3.org/2000/svg">
<g filter="url(#filter0_d_4_385)">
<rect x="2" width="90" height="90" rx="6" fill="white"/>
<rect x="2.5" y="0.5" width="89" height="89" rx="5.5" stroke="#212B36"/>
<path d="M39.1426 57H47.791C52.959 57 56.1758 54.4688 56.1758 50.2852C56.1758 46.9277 54.1895 44.7832 50.9727 44.3438V44.2207C53.416 43.4473 54.8047 41.6191 54.8047 38.9121C54.8047 35.291 52.2207 33.0059 48.1426 33.0059H39.1426V57ZM42.2012 35.6953H47.6504C50.2168 35.6953 51.7109 37.0664 51.7109 39.4395C51.7109 42.1113 49.9004 43.3418 45.875 43.3418H42.2012V35.6953ZM42.2012 45.9785H47.9844C51.1836 45.9785 53.0293 47.5605 53.0293 50.3027C53.0293 53.1328 51.1133 54.3105 46.3672 54.3105H42.2012V45.9785Z" fill="#212B36"/>
</g>
<defs>
<filter id="filter0_d_4_385" x="0" y="0" width="94" height="96" filterUnits="userSpaceOnUse" color-interpolation-filters="sRGB">
<feFlood flood-opacity="0" result="BackgroundImageFix"/>
<feColorMatrix in="SourceAlpha" type="matrix" values="0 0 0 0 0 0 0 0 0 0 0 0 0 0 0 0 0 0 127 0" result="hardAlpha"/>
<feMorphology radius="2" operator="dilate" in="SourceAlpha" result="effect1_dropShadow_4_385"/>
<feOffset dy="4"/>
<feColorMatrix type="matrix" values="0 0 0 0 0 0 0 0 0 0 0 0 0 0 0 0 0 0 1 0"/>
<feBlend mode="normal" in2="BackgroundImageFix" result="effect1_dropShadow_4_385"/>
<feBlend mode="normal" in="SourceGraphic" in2="effect1_dropShadow_4_385" result="shape"/>
</filter>
</defs>
</svg>
