<svg width="94" height="96" viewBox="0 0 94 96" fill="none" xmlns="http://www.w3.org/2000/svg">
<g filter="url(#filter0_d_4_384)">
<rect x="2" width="90" height="90" rx="6" fill="white"/>
<rect x="2.5" y="0.5" width="89" height="89" rx="5.5" stroke="#212B36"/>
<path d="M56.6934 40.3184C56.377 35.6602 52.8789 32.4961 47.7637 32.4961C41.8047 32.4961 38.2363 36.5039 38.2363 43.043V46.5938C38.2363 53.5547 41.5938 57.5098 47.834 57.5098C53.0371 57.5098 56.7461 54.0293 56.7461 49.4414V44.502H47.5703V47.1738H53.7578V49.4941C53.7578 52.6055 51.3672 54.75 47.8516 54.75C43.5801 54.75 41.2949 51.7969 41.2949 46.5938V43.043C41.2949 38.1387 43.6855 35.2559 47.7637 35.2559C51.0859 35.2559 53.2656 37.1543 53.6523 40.3184H56.6934Z" fill="#212B36"/>
</g>
<defs>
<filter id="filter0_d_4_384" x="0" y="0" width="94" height="96" filterUnits="userSpaceOnUse" color-interpolation-filters="sRGB">
<feFlood flood-opacity="0" result="BackgroundImageFix"/>
<feColorMatrix in="SourceAlpha" type="matrix" values="0 0 0 0 0 0 0 0 0 0 0 0 0 0 0 0 0 0 127 0" result="hardAlpha"/>
<feMorphology radius="2" operator="dilate" in="SourceAlpha" result="effect1_dropShadow_4_384"/>
<feOffset dy="4"/>
<feColorMatrix type="matrix" values="0 0 0 0 0 0 0 0 0 0 0 0 0 0 0 0 0 0 1 0"/>
<feBlend mode="normal" in2="BackgroundImageFix" result="effect1_dropShadow_4_384"/>
<feBlend mode="normal" in="SourceGraphic" in2="effect1_dropShadow_4_384" result="shape"/>
</filter>
</defs>
</svg>
