<svg width="134" height="96" viewBox="0 0 134 96" fill="none" xmlns="http://www.w3.org/2000/svg">
<g filter="url(#filter0_d_4_378)">
<rect x="2" width="130" height="90" rx="6" fill="white"/>
<rect x="2.5" y="0.5" width="129" height="89" rx="5.5" stroke="#212B36"/>
<path d="M17.3008 64.3984C17.3008 67.6797 19.1406 70.1992 22.4102 70.1992C25.2344 70.1992 26.7812 68.7227 27.1914 66.6133H25.2109C24.9883 67.5977 24.0859 68.418 22.5508 68.418C20.582 68.418 19.3164 66.8242 19.3164 64.4102V63.2617C19.3164 60.7773 20.5 59.2656 22.5391 59.2656C23.875 59.2656 24.8477 60.2148 25.1172 61.2578H27.0977C26.9922 59.3711 25.2578 57.4844 22.4102 57.4844C19.1992 57.4844 17.3008 59.8633 17.3008 63.1797V64.3984ZM34.8086 57.4844C31.3633 57.4844 29.5117 59.9805 29.5117 63.2734V64.375C29.5117 67.7148 31.3516 70.1992 34.8086 70.1992C38.2656 70.1992 40.082 67.7148 40.082 64.375V63.2734C40.082 59.9805 38.2539 57.4844 34.8086 57.4844ZM34.8086 59.207C36.918 59.207 38.0664 60.8242 38.0664 63.3438V64.3047C38.0664 66.8242 36.918 68.4531 34.8086 68.4531C32.6875 68.4531 31.5273 66.8125 31.5273 64.3047V63.3438C31.5273 60.8242 32.6875 59.207 34.8086 59.207ZM43.1992 70H45.2148V62.1953C45.2148 60.332 46.3984 59.3008 47.9102 59.3008C49.5859 59.3008 50.5938 60.332 50.5938 62.2188V70H52.5977V62.2188C52.5977 60.5078 53.5703 59.3008 55.3164 59.3008C57.0742 59.3008 57.9766 60.4609 57.9766 62.0312V70H59.9805V61.6211C59.9805 59.0898 58.4453 57.4844 55.8438 57.4844C53.8398 57.4844 52.5391 58.4102 52.0703 59.4648H51.9766C51.4961 58.2578 50.3477 57.4844 48.4258 57.4844C46.7969 57.4844 45.707 58.3516 45.3086 59.1953H45.2031V57.6836H43.1992V70ZM63.5195 70H65.5352V62.1953C65.5352 60.332 66.7188 59.3008 68.2305 59.3008C69.9062 59.3008 70.9141 60.332 70.9141 62.2188V70H72.918V62.2188C72.918 60.5078 73.8906 59.3008 75.6367 59.3008C77.3945 59.3008 78.2969 60.4609 78.2969 62.0312V70H80.3008V61.6211C80.3008 59.0898 78.7656 57.4844 76.1641 57.4844C74.1602 57.4844 72.8594 58.4102 72.3906 59.4648H72.2969C71.8164 58.2578 70.668 57.4844 68.7461 57.4844C67.1172 57.4844 66.0273 58.3516 65.6289 59.1953H65.5234V57.6836H63.5195V70ZM87.1562 70.1992C88.9727 70.1992 90.0977 69.4609 90.7188 68.4648H90.7773V70H92.7109V61.5039C92.7109 58.9141 90.8008 57.4844 88.1758 57.4844C85.1992 57.4844 83.7344 59.0547 83.6055 61.2109H85.5039C85.6211 59.9805 86.5234 59.1719 88.1055 59.1719C89.7695 59.1719 90.707 60.0625 90.707 61.6797V62.9336H87.4609C84.6367 62.9453 83.1367 64.3047 83.1367 66.4609C83.1367 68.7227 84.7773 70.1992 87.1562 70.1992ZM87.6953 68.5234C86.4062 68.5234 85.1992 67.8438 85.1992 66.3906C85.1992 65.2773 85.9258 64.4805 87.6133 64.4805H90.707V65.9102C90.707 67.4453 89.418 68.5234 87.6953 68.5234ZM96.1914 70H98.207V62.5C98.207 60.8125 99.1211 59.3125 101.242 59.3125C103.035 59.3125 104.254 60.3672 104.254 62.4414V70H106.27V62.1016C106.27 59.1016 104.383 57.4844 101.852 57.4844C99.8477 57.4844 98.7109 58.5273 98.2539 59.3125H98.1953V57.6836H96.1914V70ZM114.098 57.4961C110.992 57.4961 109.176 59.9336 109.176 63.2852V64.3984C109.176 67.832 110.887 70.1875 114.098 70.1875C115.75 70.1875 117.039 69.4141 117.73 68.1484H117.777V70H119.711V53.1602H117.695V59.3945H117.637C117.016 58.3047 115.727 57.4961 114.098 57.4961ZM114.379 59.2539C116.453 59.2539 117.73 60.8711 117.73 63.3555V64.3398C117.73 66.9531 116.477 68.4297 114.414 68.4297C112.551 68.4297 111.203 67.0703 111.203 64.3281V63.3555C111.203 60.6133 112.551 59.2539 114.379 59.2539Z" fill="#212B36"/>
<path d="M108.008 22.1445V25.8594H106.426C104.656 25.8594 103.215 27.2422 103.215 29.0234C103.215 30.8047 104.656 32.2461 106.426 32.2461C108.195 32.2461 109.637 30.8047 109.637 29.0234V27.4531H113.281V29.0234C113.281 30.8047 114.723 32.2461 116.492 32.2461C118.262 32.2461 119.703 30.8047 119.703 29.0234C119.703 27.2422 118.262 25.8594 116.492 25.8594H114.898V22.1445H116.492C118.262 22.1445 119.703 20.7617 119.703 18.9805C119.703 17.1992 118.262 15.7578 116.492 15.7578C114.723 15.7578 113.281 17.1992 113.281 18.9805V20.5625H109.637V18.9805C109.637 17.1992 108.195 15.7578 106.426 15.7578C104.656 15.7578 103.215 17.1992 103.215 18.9805C103.215 20.7617 104.656 22.1445 106.426 22.1445H108.008ZM106.438 20.5742C105.559 20.5742 104.844 19.8594 104.844 18.9805C104.844 18.1016 105.559 17.3867 106.426 17.3867C107.293 17.3867 108.008 18.1016 108.008 18.9922V20.5742H106.438ZM116.48 20.5742H114.898V18.9922C114.898 18.1016 115.625 17.3867 116.492 17.3867C117.359 17.3867 118.074 18.1016 118.074 18.9805C118.074 19.8594 117.359 20.5742 116.48 20.5742ZM109.637 25.8711V22.1328H113.281V25.8711H109.637ZM106.438 27.418H108.008V29.0117C108.008 29.8906 107.293 30.6055 106.426 30.6055C105.559 30.6055 104.844 29.8906 104.844 29.0117C104.844 28.1328 105.559 27.418 106.438 27.418ZM116.48 27.418C117.359 27.418 118.074 28.1328 118.074 29.0117C118.074 29.8906 117.359 30.6055 116.492 30.6055C115.625 30.6055 114.898 29.8906 114.898 29.0117V27.418H116.48Z" fill="#212B36"/>
</g>
<defs>
<filter id="filter0_d_4_378" x="0" y="0" width="134" height="96" filterUnits="userSpaceOnUse" color-interpolation-filters="sRGB">
<feFlood flood-opacity="0" result="BackgroundImageFix"/>
<feColorMatrix in="SourceAlpha" type="matrix" values="0 0 0 0 0 0 0 0 0 0 0 0 0 0 0 0 0 0 127 0" result="hardAlpha"/>
<feMorphology radius="2" operator="dilate" in="SourceAlpha" result="effect1_dropShadow_4_378"/>
<feOffset dy="4"/>
<feColorMatrix type="matrix" values="0 0 0 0 0 0 0 0 0 0 0 0 0 0 0 0 0 0 1 0"/>
<feBlend mode="normal" in2="BackgroundImageFix" result="effect1_dropShadow_4_378"/>
<feBlend mode="normal" in="SourceGraphic" in2="effect1_dropShadow_4_378" result="shape"/>
</filter>
</defs>
</svg>
