<svg width="94" height="96" viewBox="0 0 94 96" fill="none" xmlns="http://www.w3.org/2000/svg">
<g filter="url(#filter0_d_4_365)">
<rect x="2" width="90" height="90" rx="6" fill="white"/>
<rect x="2.5" y="0.5" width="89" height="89" rx="5.5" stroke="#212B36"/>
<path d="M56.6152 46.8926V43.3594C56.6152 36.5391 52.8535 32.4961 47.0352 32.4961C41.2168 32.4961 37.3848 36.5391 37.3848 43.3594V46.8926C37.3848 53.6777 41.1465 57.5098 46.9648 57.5098C52.8008 57.5098 56.6152 53.6777 56.6152 46.8926ZM53.5391 43.3418V46.8926C53.5391 52.2715 50.709 54.75 47 54.75C43.3086 54.75 40.4609 52.2715 40.4609 46.8926V43.3418C40.4609 37.9805 43.3086 35.2559 47 35.2559C50.709 35.2559 53.5391 37.9805 53.5391 43.3418Z" fill="#212B36"/>
</g>
<defs>
<filter id="filter0_d_4_365" x="0" y="0" width="94" height="96" filterUnits="userSpaceOnUse" color-interpolation-filters="sRGB">
<feFlood flood-opacity="0" result="BackgroundImageFix"/>
<feColorMatrix in="SourceAlpha" type="matrix" values="0 0 0 0 0 0 0 0 0 0 0 0 0 0 0 0 0 0 127 0" result="hardAlpha"/>
<feMorphology radius="2" operator="dilate" in="SourceAlpha" result="effect1_dropShadow_4_365"/>
<feOffset dy="4"/>
<feColorMatrix type="matrix" values="0 0 0 0 0 0 0 0 0 0 0 0 0 0 0 0 0 0 1 0"/>
<feBlend mode="normal" in2="BackgroundImageFix" result="effect1_dropShadow_4_365"/>
<feBlend mode="normal" in="SourceGraphic" in2="effect1_dropShadow_4_365" result="shape"/>
</filter>
</defs>
</svg>
