<svg width="184" height="96" viewBox="0 0 184 96" fill="none" xmlns="http://www.w3.org/2000/svg">
<g filter="url(#filter0_d_4_376)">
<rect x="2" width="180" height="90" rx="6" fill="white"/>
<rect x="2.5" y="0.5" width="179" height="89" rx="5.5" stroke="#212B36"/>
<path d="M17.2891 61.2109C17.2891 63.4375 19.1758 64.1406 21.4727 64.6094C23.1953 64.9492 24.5664 65.2188 24.5664 66.6133C24.5664 67.6562 23.7109 68.5469 21.8242 68.5469C20.1836 68.5469 19.2227 67.8086 19.0469 66.6836H17.0781C17.0781 68.8984 18.9648 70.1992 21.6719 70.1992C24.5664 70.1992 26.5469 68.8164 26.5469 66.3672C26.5469 63.9648 24.6016 63.3438 22.293 62.9336C20.8867 62.6758 19.2578 62.3828 19.2578 61C19.2578 59.7812 20.3125 59.1367 21.7773 59.1367C23.6992 59.1367 24.2852 60.2383 24.3555 61.1758H26.2305C26.2305 59.1367 24.7422 57.4844 21.8477 57.4844C19.4805 57.4844 17.2891 58.6094 17.2891 61.2109ZM29.4531 70H31.4688V62.5C31.4688 60.8125 32.3828 59.3125 34.5039 59.3125C36.3086 59.3125 37.5156 60.3672 37.5156 62.4414V70H39.5312V62.1016C39.5312 59.1016 37.6562 57.4844 35.1133 57.4844C33.1211 57.4844 31.9844 58.5273 31.5273 59.3125H31.4688V53.1602H29.4531V70ZM42.7773 54.7188C42.7773 55.4336 43.3516 55.9961 44.0664 55.9961C44.7812 55.9961 45.3672 55.4336 45.3672 54.7188C45.3672 53.9922 44.7812 53.4297 44.0664 53.4297C43.3516 53.4297 42.7773 53.9922 42.7773 54.7188ZM43.0586 70H45.0742V57.6836H43.0586V70ZM49.5742 70H51.5898V59.3711H54.0039V57.6836H51.5781V56.6172C51.5781 55.1172 52.2227 54.6836 53.5586 54.6836C53.8633 54.6836 54.0156 54.707 54.1914 54.7305V53.0781C53.9805 53.043 53.6992 53.0078 53.2891 53.0078C50.7578 53.0078 49.5742 54.0977 49.5742 56.4531V57.6836H47.9102V59.3711H49.5742V70ZM57.8477 57.6836H56.1836V59.3711H57.8359V66.5547C57.8359 68.9805 58.4336 70.1055 61.3516 70.1055C61.7734 70.1055 62.1953 70.0586 62.3711 70.0234V68.4062C62.207 68.4297 62.0547 68.4297 61.8555 68.4297C60.3438 68.4297 59.8516 68.0547 59.8516 66.5781V59.3711H62.2891V57.6836H59.8516V54.6133H57.8477V57.6836Z" fill="#212B36"/>
</g>
<defs>
<filter id="filter0_d_4_376" x="0" y="0" width="184" height="96" filterUnits="userSpaceOnUse" color-interpolation-filters="sRGB">
<feFlood flood-opacity="0" result="BackgroundImageFix"/>
<feColorMatrix in="SourceAlpha" type="matrix" values="0 0 0 0 0 0 0 0 0 0 0 0 0 0 0 0 0 0 127 0" result="hardAlpha"/>
<feMorphology radius="2" operator="dilate" in="SourceAlpha" result="effect1_dropShadow_4_376"/>
<feOffset dy="4"/>
<feColorMatrix type="matrix" values="0 0 0 0 0 0 0 0 0 0 0 0 0 0 0 0 0 0 1 0"/>
<feBlend mode="normal" in2="BackgroundImageFix" result="effect1_dropShadow_4_376"/>
<feBlend mode="normal" in="SourceGraphic" in2="effect1_dropShadow_4_376" result="shape"/>
</filter>
</defs>
</svg>
